<svg width="24" height="24" viewBox="0 0 24 24" fill="none" xmlns="http://www.w3.org/2000/svg">
<path fill-rule="evenodd" clip-rule="evenodd" d="M6.00383 1.96655C6.6227 1.34768 7.46207 1 8.33729 1L15.6627 1C16.5379 1 17.3773 1.34768 17.9961 1.96655L22.0334 6.00385C22.6523 6.62272 23 7.46209 23 8.33731V15.6627C23 16.5379 22.6523 17.3773 22.0334 17.9961L17.9961 22.0335C17.3773 22.6523 16.5379 23 15.6627 23L8.33729 23C7.46207 23 6.6227 22.6523 6.00383 22.0334L1.96654 17.9961C1.34768 17.3773 1 16.5379 1 15.6627L1 8.3373C1 7.46209 1.34768 6.62272 1.96654 6.00386L6.00383 1.96655ZM8.33729 3C7.99251 3 7.66185 3.13696 7.41805 3.38076L3.38076 7.41807C3.13696 7.66186 3 7.99252 3 8.3373V15.6627C3 16.0075 3.13696 16.3381 3.38076 16.5819L7.41805 20.6192C7.66184 20.863 7.99251 21 8.33729 21L15.6627 21C16.0075 21 16.3381 20.863 16.5819 20.6192L20.6192 16.5819C20.863 16.3381 21 16.0075 21 15.6627V8.33731C21 7.99253 20.863 7.66186 20.6192 7.41807L16.5819 3.38076C16.3381 3.13696 16.0075 3 15.6627 3H8.33729Z" fill="#1E212C"/>
<path d="M13 16.5C13 17.0523 12.5523 17.5 12 17.5C11.4477 17.5 11 17.0523 11 16.5C11 15.9477 11.4477 15.5 12 15.5C12.5523 15.5 13 15.9477 13 16.5Z" fill="#1E212C"/>
<path fill-rule="evenodd" clip-rule="evenodd" d="M12 14.125C11.4477 14.125 11 13.6773 11 13.125V7.50001C11 6.94773 11.4477 6.50001 12 6.50001C12.5523 6.50001 13 6.94773 13 7.50001V13.125C13 13.6773 12.5523 14.125 12 14.125Z" fill="#1E212C"/>
</svg>
