<svg width="24" height="24" viewBox="0 0 24 24" fill="none" xmlns="http://www.w3.org/2000/svg">
<path fill-rule="evenodd" clip-rule="evenodd" d="M12.0001 14.625C11.4478 14.625 11.0001 14.1773 11.0001 13.625V8C11.0001 7.44772 11.4478 7 12.0001 7C12.5524 7 13.0001 7.44772 13.0001 8V13.625C13.0001 14.1773 12.5524 14.625 12.0001 14.625Z" fill="#1E212C"/>
<path d="M13.0001 17C13.0001 17.5523 12.5524 18 12.0001 18C11.4478 18 11.0001 17.5523 11.0001 17C11.0001 16.4477 11.4478 16 12.0001 16C12.5524 16 13.0001 16.4477 13.0001 17Z" fill="#1E212C"/>
<path fill-rule="evenodd" clip-rule="evenodd" d="M23.0839 17.4766C24.2628 19.4764 22.821 22 20.4995 22H3.50065C1.17917 22 -0.262621 19.4764 0.916253 17.4766L9.93237 2.18136C10.3639 1.44931 11.1503 1 12.0001 1C12.8499 1 13.6363 1.44932 14.0678 2.18136L23.0839 17.4766ZM20.4995 20C21.2733 20 21.7539 19.1588 21.361 18.4922L12.3449 3.19699C12.2729 3.07492 12.1418 3 12.0001 3C11.8584 3 11.7273 3.07492 11.6553 3.19699L2.63919 18.4922C2.24623 19.1588 2.72683 20 3.50065 20H20.4995Z" fill="#1E212C"/>
</svg>
