<svg width="24" height="24" viewBox="0 0 24 24" fill="none" xmlns="http://www.w3.org/2000/svg">
<path fill-rule="evenodd" clip-rule="evenodd" d="M9.0517 17H14.9444L15.2064 17.5996C15.3943 18.0297 15.498 18.5041 15.498 19C15.498 20.933 13.931 22.5 11.998 22.5C10.0651 22.5 8.49805 20.933 8.49805 19C8.49805 18.5041 8.60179 18.0297 8.78972 17.5996L9.0517 17ZM10.498 19C10.498 19.8284 11.1696 20.5 11.998 20.5C12.8265 20.5 13.498 19.8284 13.498 19H10.498Z" fill="#1E212C"/>
<path fill-rule="evenodd" clip-rule="evenodd" d="M12.0001 4C9.05519 4 6.50013 6.86502 6.50013 10V13.3333C6.50013 14.6973 5.85796 15.9816 4.7668 16.8C4.74582 16.8157 4.73629 16.8278 4.73211 16.834C4.72775 16.8404 4.72512 16.8462 4.72333 16.8526C4.71935 16.8668 4.71756 16.8925 4.72806 16.924C4.73855 16.9555 4.75541 16.975 4.76711 16.984C4.77238 16.988 4.77801 16.9912 4.78534 16.9936C4.79235 16.996 4.80725 17 4.83347 17H19.1668C19.193 17 19.2079 16.996 19.2149 16.9936C19.2223 16.9912 19.2279 16.988 19.2332 16.984C19.2449 16.975 19.2617 16.9555 19.2722 16.924C19.2827 16.8925 19.2809 16.8668 19.2769 16.8526C19.2751 16.8462 19.2725 16.8404 19.2682 16.834C19.264 16.8278 19.2544 16.8157 19.2335 16.8C18.1423 15.9816 17.5001 14.6973 17.5001 13.3333V10C17.5001 6.86502 14.9451 4 12.0001 4ZM4.50013 10C4.50013 5.95527 7.76538 2 12.0001 2C16.2349 2 19.5001 5.95527 19.5001 10V13.3333C19.5001 14.0678 19.8459 14.7593 20.4335 15.2C22.0565 16.4173 21.1956 19 19.1668 19H4.83347C2.80466 19 1.94376 16.4173 3.5668 15.2C4.15435 14.7593 4.50013 14.0678 4.50013 13.3333V10Z" fill="#1E212C"/>
</svg>
