<svg width="96" height="96" viewBox="0 0 96 96" fill="none" xmlns="http://www.w3.org/2000/svg">
<g opacity="0.3">
<path d="M64.3003 11.9214L64.3003 0.000445276L95.999 0.000442505L95.999 31.6992L84.1684 31.6992L84.1684 11.9214L64.3003 11.9214Z" fill="white"/>
<path d="M42.8979 33.3247L42.8979 21.4941L74.5967 21.4941L74.5967 53.1025L62.6758 53.1025L62.6758 33.3247L42.8979 33.3247Z" fill="white"/>
<path d="M21.4941 54.8188L21.4941 42.8979L53.1025 42.8979L53.1025 74.5967L41.2719 74.5967L41.2719 54.8188L21.4941 54.8188Z" fill="white"/>
<path d="M-3.79687e-05 76.2221L-3.90108e-05 64.3012L31.6987 64.3012L31.6987 96L19.7778 96L19.7778 76.2221L-3.79687e-05 76.2221Z" fill="white"/>
</g>
</svg>
