<svg width="32" height="32" viewBox="0 0 32 32" fill="none" xmlns="http://www.w3.org/2000/svg">
<circle opacity="0.12" cx="16" cy="16" r="16" fill="#FF3F3A"/>
<path d="M19.7086 8.66907L17.8571 8.66602C15.777 8.66602 14.4328 10.0827 14.4328 12.2755V13.9397H12.5712C12.4103 13.9397 12.28 14.0737 12.28 14.2389V16.6502C12.28 16.8154 12.4104 16.9492 12.5712 16.9492H14.4328V23.0336C14.4328 23.1989 14.563 23.3327 14.7239 23.3327H17.1528C17.3136 23.3327 17.4439 23.1987 17.4439 23.0336V16.9492H19.6206C19.7814 16.9492 19.9117 16.8154 19.9117 16.6502L19.9126 14.2389C19.9126 14.1596 19.8818 14.0836 19.8273 14.0275C19.7728 13.9713 19.6985 13.9397 19.6213 13.9397H17.4439V12.5289C17.4439 11.8509 17.6012 11.5066 18.4611 11.5066L19.7083 11.5062C19.8691 11.5062 19.9993 11.3722 19.9993 11.2071V8.96813C19.9993 8.80319 19.8692 8.66937 19.7086 8.66907Z" fill="#FF3F3A"/>
</svg>
