<svg width="105" height="225" viewBox="0 0 105 225" fill="none" xmlns="http://www.w3.org/2000/svg">
<g opacity="0.8" clip-path="url(#clip0_2234_9590)">
<path d="M3.6972 58.7113C4.86448 59.6083 5.06494 61.1595 4.16492 62.3306C3.2649 63.5018 1.71442 63.7074 0.547139 62.8104C-0.620145 61.9133 -0.820589 60.3622 0.0794277 59.191C0.979444 58.0199 2.62719 57.889 3.6972 58.7113Z" fill="#FFCF2D"/>
<path d="M17.1225 41.2416C18.2898 42.1386 18.4902 43.6898 17.5902 44.8609C16.6902 46.0321 15.1397 46.2377 13.9724 45.3406C12.8051 44.4436 12.6047 42.8925 13.5047 41.7213C14.4047 40.5501 16.0525 40.4193 17.1225 41.2416Z" fill="#FFCF2D"/>
<path d="M30.5478 23.7719C31.715 24.6689 31.9155 26.22 31.0155 27.3912C30.1155 28.5624 28.565 28.7679 27.3977 27.8709C26.2304 26.9739 26.03 25.4227 26.93 24.2516C27.755 23.178 29.4778 22.9496 30.5478 23.7719Z" fill="#FFCF2D"/>
<path d="M4.84075 87.2211C6.00804 88.1181 6.20849 89.6693 5.30847 90.8404C4.40845 92.0116 2.85798 92.2172 1.6907 91.3201C0.523414 90.4231 0.322961 88.872 1.22298 87.7008C2.12299 86.5296 3.67347 86.324 4.84075 87.2211Z" fill="#FFCF2D"/>
<path d="M18.1908 69.849C19.3581 70.746 19.5586 72.2972 18.6586 73.4683C17.7586 74.6395 16.2081 74.8451 15.0408 73.9481C13.8735 73.051 13.6731 71.4999 14.5731 70.3287C15.4731 69.1576 17.0236 68.952 18.1908 69.849Z" fill="#FFCF2D"/>
<path d="M31.6161 52.3793C32.7834 53.2763 32.9839 54.8275 32.0839 55.9986C31.1838 57.1698 29.6334 57.3754 28.4661 56.4783C27.2988 55.5813 27.0984 54.0302 27.9984 52.859C28.8984 51.6878 30.4489 51.4822 31.6161 52.3793Z" fill="#FFCF2D"/>
<path d="M45.0414 34.9096C46.2087 35.8066 46.4092 37.3577 45.5092 38.5289C44.6091 39.7 43.0587 39.9056 41.8914 39.0086C40.7241 38.1116 40.5236 36.5604 41.4237 35.3893C42.2487 34.3157 43.8741 34.0125 45.0414 34.9096Z" fill="#FFCF2D"/>
<path d="M1.65763 1.56972C2.82491 2.46676 3.02537 4.01789 2.12536 5.18905C1.22535 6.3602 -0.325128 6.5658 -1.49241 5.66877C-2.65969 4.77173 -2.86014 3.22058 -1.96013 2.04942C-1.13512 0.975863 0.490348 0.672684 1.65763 1.56972Z" fill="#FFCF2D"/>
<path d="M2.72601 30.1781C3.89329 31.0751 4.09374 32.6263 3.19372 33.7974C2.2937 34.9686 0.743231 35.1742 -0.424052 34.2772C-1.59133 33.3801 -1.79179 31.829 -0.891769 30.6578C0.00824702 29.4867 1.55873 29.2811 2.72601 30.1781Z" fill="#FFCF2D"/>
<path d="M16.1513 12.7084C17.3186 13.6054 17.519 15.1566 16.619 16.3277C15.719 17.4989 14.1685 17.7045 13.0012 16.8074C11.834 15.9104 11.6335 14.3592 12.5335 13.1881C13.3585 12.1145 14.984 11.8113 16.1513 12.7084Z" fill="#FFCF2D"/>
<path d="M5.81243 115.755C6.97971 116.652 7.18016 118.203 6.28015 119.375C5.38013 120.546 3.82966 120.751 2.66237 119.854C1.49509 118.957 1.29464 117.406 2.19466 116.235C3.01967 115.161 4.74242 114.933 5.81243 115.755Z" fill="#FFCF2D"/>
<path d="M19.2377 98.2846C20.405 99.1816 20.6055 100.733 19.7054 101.904C18.8054 103.075 17.2549 103.281 16.0877 102.384C14.9204 101.487 14.7199 99.9354 15.6199 98.7643C16.52 97.5931 18.1677 97.4623 19.2377 98.2846Z" fill="#FFCF2D"/>
<path d="M32.5878 80.9125C33.7551 81.8095 33.9556 83.3607 33.0555 84.5318C32.1555 85.703 30.605 85.9086 29.4378 85.0115C28.2705 84.1145 28.07 82.5633 28.9701 81.3922C29.8701 80.221 31.5178 80.0902 32.5878 80.9125Z" fill="#FFCF2D"/>
<path d="M46.0131 63.4427C47.1804 64.3398 47.3808 65.8909 46.4808 67.0621C45.5808 68.2333 44.0303 68.4388 42.8631 67.5418C41.6958 66.6448 41.4953 65.0936 42.3953 63.9225C43.2954 62.7513 44.9431 62.6205 46.0131 63.4427Z" fill="#FFCF2D"/>
<path d="M59.4384 45.973C60.6057 46.8701 60.8061 48.4212 59.9061 49.5924C59.0061 50.7635 57.4556 50.9691 56.2883 50.0721C55.1211 49.175 54.9206 47.6239 55.8206 46.4527C56.6457 45.3792 58.3684 45.1507 59.4384 45.973Z" fill="#FFCF2D"/>
<path d="M7.3485 147.982C8.21836 146.85 8.00896 145.23 6.88079 144.363C5.75261 143.496 4.13288 143.71 3.26302 144.842C2.39315 145.974 2.60255 147.595 3.73073 148.462C4.85891 149.329 6.47864 149.114 7.3485 147.982Z" fill="#FFCF2D"/>
<path d="M20.3061 126.893C21.4734 127.79 21.6738 129.341 20.7738 130.512C19.8738 131.683 18.3233 131.889 17.156 130.992C15.9887 130.095 15.7883 128.544 16.6883 127.373C17.5133 126.299 19.1388 125.996 20.3061 126.893Z" fill="#FFCF2D"/>
<path d="M33.7314 109.423C34.8987 110.32 35.0991 111.871 34.1991 113.043C33.2991 114.214 31.7486 114.419 30.5813 113.522C29.414 112.625 29.2136 111.074 30.1136 109.903C31.0136 108.732 32.5641 108.526 33.7314 109.423Z" fill="#FFCF2D"/>
<path d="M47.0815 92.0511C48.2488 92.9482 48.4492 94.4993 47.5492 95.6705C46.6492 96.8416 45.0987 97.0472 43.9314 96.1502C42.7641 95.2532 42.5637 93.702 43.4637 92.5309C44.3637 91.3597 45.9142 91.1541 47.0815 92.0511Z" fill="#FFCF2D"/>
<path d="M60.9745 78.2008C61.8443 77.0688 61.6349 75.4484 60.5068 74.5814C59.3786 73.7144 57.7589 73.9292 56.889 75.0611C56.0191 76.1931 56.2285 77.8135 57.3567 78.6805C58.4849 79.5475 60.1046 79.3327 60.9745 78.2008Z" fill="#FFCF2D"/>
<path d="M73.9321 57.1117C75.0993 58.0087 75.2998 59.5599 74.3998 60.731C73.4998 61.9022 71.9493 62.1078 70.782 61.2108C69.6147 60.3137 69.4143 58.7626 70.3143 57.5914C71.1393 56.5178 72.7648 56.2147 73.9321 57.1117Z" fill="#FFCF2D"/>
<path d="M7.94915 172.971C9.11644 173.868 9.31688 175.419 8.41687 176.59C7.51685 177.762 5.96638 177.967 4.7991 177.07C3.63182 176.173 3.43136 174.622 4.33137 173.451C5.23139 172.28 6.78187 172.074 7.94915 172.971Z" fill="#FFCF2D"/>
<path d="M21.3745 155.501C22.5417 156.398 22.7422 157.95 21.8422 159.121C20.9422 160.292 19.3917 160.497 18.2244 159.6C17.0571 158.703 16.8567 157.152 17.7567 155.981C18.6567 154.81 20.2072 154.604 21.3745 155.501Z" fill="#FFCF2D"/>
<path d="M34.7997 138.032C35.967 138.929 36.1675 140.48 35.2675 141.651C34.3674 142.822 32.817 143.028 31.6497 142.131C30.4824 141.234 30.2819 139.682 31.182 138.511C32.007 137.438 33.6325 137.135 34.7997 138.032Z" fill="#FFCF2D"/>
<path d="M48.225 120.561C49.3923 121.458 49.5928 123.009 48.6928 124.18C47.7927 125.351 46.2423 125.557 45.075 124.66C43.9077 123.763 43.7072 122.212 44.6073 121.041C45.5073 119.869 47.0577 119.664 48.225 120.561Z" fill="#FFCF2D"/>
<path d="M61.5751 103.189C62.7424 104.086 62.9429 105.637 62.0428 106.808C61.1428 107.979 59.5924 108.185 58.4251 107.288C57.2578 106.391 57.0573 104.84 57.9574 103.669C58.8574 102.497 60.4078 102.292 61.5751 103.189Z" fill="#FFCF2D"/>
<path d="M75.0004 85.7191C76.1677 86.6162 76.3682 88.1673 75.4681 89.3385C74.5681 90.5096 73.0177 90.7152 71.8504 89.8182C70.6831 88.9211 70.4826 87.37 71.3826 86.1988C72.2827 85.0277 73.8331 84.8221 75.0004 85.7191Z" fill="#FFCF2D"/>
<path d="M88.4257 68.2494C89.593 69.1464 89.7935 70.6976 88.8934 71.8687C87.9934 73.0399 86.4429 73.2455 85.2757 72.3485C84.1084 71.4514 83.9079 69.9003 84.8079 68.7291C85.633 67.6555 87.2584 67.3524 88.4257 68.2494Z" fill="#FFCF2D"/>
<path d="M8.99554 201.407C10.1628 202.304 10.3633 203.855 9.46326 205.026C8.56324 206.197 7.01277 206.403 5.84548 205.506C4.6782 204.609 4.47775 203.057 5.37776 201.886C6.20278 200.813 7.92553 200.584 8.99554 201.407Z" fill="#FFCF2D"/>
<path d="M22.3456 184.035C23.5129 184.932 23.7134 186.483 22.8133 187.654C21.9133 188.825 20.3629 189.031 19.1956 188.134C18.0283 187.237 17.8278 185.685 18.7279 184.514C19.6279 183.343 21.2756 183.212 22.3456 184.035Z" fill="#FFCF2D"/>
<path d="M35.7709 166.565C36.9382 167.462 37.1387 169.013 36.2386 170.184C35.3386 171.355 33.7881 171.561 32.6209 170.664C31.4536 169.767 31.2531 168.216 32.1532 167.045C33.0532 165.873 34.7009 165.743 35.7709 166.565Z" fill="#FFCF2D"/>
<path d="M49.1962 149.094C50.3635 149.991 50.5639 151.542 49.6639 152.713C48.7639 153.885 47.2134 154.09 46.0462 153.193C44.8789 152.296 44.6784 150.745 45.5784 149.574C46.4035 148.5 48.1262 148.272 49.1962 149.094Z" fill="#FFCF2D"/>
<path d="M62.6215 131.624C63.7888 132.521 63.9892 134.073 63.0892 135.244C62.1892 136.415 60.6387 136.62 59.4715 135.723C58.3042 134.826 58.1037 133.275 59.0037 132.104C59.9038 130.933 61.5515 130.802 62.6215 131.624Z" fill="#FFCF2D"/>
<path d="M75.9716 114.252C77.1389 115.149 77.3393 116.7 76.4393 117.872C75.5393 119.043 73.9888 119.248 72.8215 118.351C71.6543 117.454 71.4538 115.903 72.3538 114.732C73.2539 113.561 74.9016 113.43 75.9716 114.252Z" fill="#FFCF2D"/>
<path d="M89.3969 96.7826C90.5642 97.6796 90.7646 99.2308 89.8646 100.402C88.9646 101.573 87.4141 101.779 86.2469 100.882C85.0796 99.9846 84.8791 98.4335 85.7791 97.2623C86.6791 96.0912 88.3269 95.9603 89.3969 96.7826Z" fill="#FFCF2D"/>
<path d="M102.822 79.3129C103.989 80.2099 104.19 81.761 103.29 82.9322C102.39 84.1034 100.839 84.309 99.6721 83.4119C98.5049 82.5149 98.3044 80.9637 99.2044 79.7926C100.029 78.719 101.752 78.4906 102.822 79.3129Z" fill="#FFCF2D"/>
</g>
<defs>
<clipPath id="clip0_2234_9590">
<rect width="181.184" height="132.739" fill="white" transform="translate(-110.787 143.662) rotate(-52.4584)"/>
</clipPath>
</defs>
</svg>
